<svg xmlns="http://www.w3.org/2000/svg" viewBox="0 0 64 64">
  <g>
    <path fill="#1E3A5F" transform="rotate(0 32 32)"   d="M32 30 C26 20, 26 8, 32 3 C38 8, 38 20, 32 30 Z"/>
    <path fill="#1E3A5F" transform="rotate(60 32 32)"  d="M32 30 C26 20, 26 8, 32 3 C38 8, 38 20, 32 30 Z"/>
    <path fill="#9AA3AE" transform="rotate(120 32 32)" d="M32 30 C26 20, 26 8, 32 3 C38 8, 38 20, 32 30 Z"/>
    <path fill="#1E3A5F" transform="rotate(180 32 32)" d="M32 30 C26 20, 26 8, 32 3 C38 8, 38 20, 32 30 Z"/>
    <path fill="#F97316" transform="rotate(240 32 32)" d="M32 30 C26 20, 26 8, 32 3 C38 8, 38 20, 32 30 Z"/>
    <path fill="#9AA3AE" transform="rotate(300 32 32)" d="M32 30 C26 20, 26 8, 32 3 C38 8, 38 20, 32 30 Z"/>
  </g>
</svg>
